<?xml version="1.0" standalone="no"?><!DOCTYPE svg PUBLIC "-//W3C//DTD SVG 1.1//EN" "http://www.w3.org/Graphics/SVG/1.1/DTD/svg11.dtd"><svg class="icon" width="200px" height="200.00px" viewBox="0 0 1024 1024" version="1.1" xmlns="http://www.w3.org/2000/svg"><path fill="#333333" d="M464 160c41.1 0 80.9 8 118.3 23.9 36.2 15.3 68.7 37.2 96.6 65.2s49.9 60.5 65.2 96.6C760 383.1 768 422.9 768 464s-8 80.9-23.9 118.3C728.8 618.5 706.9 651 679 679s-60.5 49.9-96.6 65.2C544.9 760 505.1 768 464 768s-80.9-8-118.3-23.9C309.5 728.8 277 706.9 249 679s-49.9-60.5-65.2-96.6C168 544.9 160 505.1 160 464s8-80.9 23.9-118.3c15.3-36.2 37.2-68.7 65.2-96.6s60.5-49.9 96.6-65.2C383.1 168 422.9 160 464 160m0-64C260.8 96 96 260.8 96 464s164.8 368 368 368 368-164.8 368-368S667.2 96 464 96zM702.6 670.6c-8.2 0-16.4 3.1-22.6 9.4-12.5 12.5-12.5 32.8 0 45.3l193.4 193.4c6.2 6.2 14.4 9.4 22.6 9.4 8.2 0 16.4-3.1 22.6-9.4 12.5-12.5 12.5-32.8 0-45.3L725.3 680c-6.3-6.2-14.5-9.4-22.7-9.4zM240.6 464c-9.3 0-16.6-7.9-16-17.2 2.6-36.9 13.7-72.7 32.5-104.5 18.1-30.7 42.9-57.1 72.3-77 7.7-5.2 18.2-2.8 22.9 5.2 4.2 7.3 2 16.6-4.9 21.3-52.6 35.7-86.2 94-90.8 157.3-0.7 8.4-7.6 14.9-16 14.9z" /></svg>